<svg xmlns="http://www.w3.org/2000/svg" viewBox="0 0 500 500"><g id="freepik--background-simple--inject-100"><path d="M446.46,168.57C443.54,135,424.85,102.21,395.28,86s-69.56-13.42-94.18,9.64C278.24,117,270.24,152,244.53,169.85c-32.67,22.7-78.29,8.13-116.2,20.18C88,202.84,61.79,249.33,71.65,290.45s53.89,65.9,104.09,69.86l58.62,1.3c48,1.06,95.4-12.32,135.11-39.31,19.89-13.53,37.19-29.86,50.24-48C439.38,246.87,449.39,202.17,446.46,168.57Z" style="fill:#ebebeb"></path></g><g id="freepik--Floor--inject-100"><path d="M480.92,476.12c0,.15-100.49.26-224.42.26s-224.44-.11-224.44-.26,100.47-.26,224.44-.26S480.92,476,480.92,476.12Z" style="fill:#455a64"></path></g><g id="freepik--Collection--inject-100"><rect x="126.05" y="140.3" width="79.23" height="82.59" style="fill:#FF725E"></rect><g style="opacity:0.6000000000000001"><rect x="126.05" y="140.3" width="79.23" height="82.59"></rect></g><rect x="120.68" y="140.3" width="79.23" height="82.59" style="fill:#455a64"></rect><path d="M199.93,222.92H120.66V140.28h79.27Z" style="fill:#FF725E"></path><rect x="131.33" y="151.4" width="57.93" height="60.38" style="fill:#fafafa"></rect><path d="M131.33,212.19a9,9,0,0,1-1.43,1.66c-.92,1-2.22,2.3-3.68,3.74s-2.8,2.71-3.79,3.62a8.74,8.74,0,0,1-1.67,1.39,9.28,9.28,0,0,1,1.42-1.65c.93-1,2.23-2.3,3.69-3.74s2.81-2.72,3.79-3.63A9.53,9.53,0,0,1,131.33,212.19Z" style="fill:#263238"></path><path d="M189.26,212a10.57,10.57,0,0,1,1.66,1.43c1,.93,2.3,2.23,3.73,3.68s2.72,2.8,3.63,3.79a9.68,9.68,0,0,1,1.39,1.67,9,9,0,0,1-1.66-1.42c-1-.92-2.3-2.23-3.74-3.69s-2.72-2.8-3.62-3.79A8.61,8.61,0,0,1,189.26,212Z" style="fill:#263238"></path><path d="M189.1,151.57a8.78,8.78,0,0,1,1.43-1.67c.92-1,2.22-2.29,3.68-3.73s2.8-2.71,3.79-3.62a9.09,9.09,0,0,1,1.67-1.4,9.51,9.51,0,0,1-1.42,1.66c-.93,1-2.23,2.3-3.69,3.74s-2.81,2.72-3.79,3.63A9.11,9.11,0,0,1,189.1,151.57Z" style="fill:#263238"></path><path d="M131.17,151.71a9.35,9.35,0,0,1-1.66-1.43c-1-.92-2.3-2.22-3.73-3.68s-2.72-2.79-3.63-3.78a9.48,9.48,0,0,1-1.39-1.68,9.35,9.35,0,0,1,1.66,1.43c1,.92,2.3,2.22,3.74,3.69s2.72,2.8,3.62,3.79A9.16,9.16,0,0,1,131.17,151.71Z" style="fill:#263238"></path><path d="M189.1,211.79s0-.1,0-.29,0-.49,0-.85c0-.75,0-1.84,0-3.26,0-2.86,0-7-.06-12.3,0-10.58-.07-25.65-.11-43.69l.22.23-57.76,0h0l.26-.26c0,22.17,0,42.9,0,60.39l-.22-.22,41.83.11,11.75.06,3.11,0,.8,0h-.76l-3.06,0-11.7.06-42,.11h-.22v-.22c0-17.49,0-38.22,0-60.39v-.25h.27l57.76,0h.22v.22c0,18.1-.08,33.22-.11,43.83,0,5.26-.05,9.41-.06,12.26,0,1.39,0,2.47,0,3.21,0,.35,0,.62,0,.82S189.1,211.79,189.1,211.79Z" style="fill:#e0e0e0"></path><path d="M145.32,167.65c-.49,1-1,2.32-.34,3.28.28.42.76.75.81,1.25.08.67-.63,1.15-.89,1.77-.55,1.29.93,2.6.94,4a16.48,16.48,0,0,1-.54,2.26c-.2,1.7,1.29,3.13,1.56,4.81.1.62,0,1.25.17,1.85a1.5,1.5,0,0,0,1.22,1.24,6,6,0,0,0,1.28-.36c2.12-.43,2.92,3.5,5.08,3.48.84,0,1.61-.67,2.44-.51,1.07.2,1.42,1.58,2.28,2.26,2,1.64,5.18-1.42,7.54-.29.4.19.73.49,1.14.67,1.34.63,2.89-.18,4.15-1-.5-1.42.46-2.9,1.29-4.16s1.59-2.94.74-4.19c-.35-.51-.94-.88-1.08-1.48a2.84,2.84,0,0,1,.36-1.66,6.46,6.46,0,0,0-2-7.3,3.13,3.13,0,0,1-1.1-1.1c-.31-.71.08-1.57-.2-2.3-.65-1.67-3.45-.53-4.88-1.62a7.81,7.81,0,0,1-1.07-1.28,3.25,3.25,0,0,0-4.17-.51,2.73,2.73,0,0,1-1.2.68,2.44,2.44,0,0,1-1.46-.66,4.61,4.61,0,0,0-4.42-.32,2.12,2.12,0,0,1-1.06.35c-.46,0-.81-.39-1.22-.58-1.35-.62-2.78.64-3.73,1.79-.13-1-1-.25-1.62-.42" style="fill:#FF725E"></path><path d="M177.45,200.63a9.05,9.05,0,0,1-.88-1.29c-.27-.43-.61-1-1-1.54s-.85-1.27-1.38-2a111.8,111.8,0,0,0-8.84-11,103.17,103.17,0,0,0-10.15-9.74c-.69-.59-1.33-1.1-1.9-1.53s-1-.82-1.46-1.11a8.92,8.92,0,0,1-1.23-1,9.05,9.05,0,0,1,1.35.81c.43.27.93.63,1.52,1s1.24.9,1.95,1.47a86.92,86.92,0,0,1,10.3,9.68,93.15,93.15,0,0,1,8.76,11.09c.51.75,1,1.44,1.32,2s.7,1.14.94,1.59A9.55,9.55,0,0,1,177.45,200.63Z" style="fill:#263238"></path><path d="M165.78,174c.07,0,.12,1.34.27,3.53s.45,5.22,1,8.57l.07.4-.4-.11-.83-.23a88.82,88.82,0,0,0-9-2c-2.33-.38-3.78-.56-3.77-.64a3.42,3.42,0,0,1,1,0c.66,0,1.62.13,2.79.28a64.21,64.21,0,0,1,9.08,1.83l.83.23-.32.3a62.34,62.34,0,0,1-.87-8.64c0-1.1,0-2,0-2.6A3,3,0,0,1,165.78,174Z" style="fill:#263238"></path><path d="M159,171.62c.08,0-.12.8-.15,2.09a10.85,10.85,0,0,0,1.08,4.91l.34.7-.7-.36-.53-.27a14,14,0,0,0-5.3-1.34c-1.41-.07-2.29.05-2.3,0a5.74,5.74,0,0,1,2.31-.34,12.5,12.5,0,0,1,5.51,1.24l.56.29-.36.34a9.94,9.94,0,0,1-1-5.15A4.83,4.83,0,0,1,159,171.62Z" style="fill:#263238"></path><rect x="205.64" y="39.85" width="79.23" height="82.59" transform="translate(-8.87 34.72) rotate(-7.96)" style="fill:#FF725E"></rect><g style="opacity:0.6000000000000001"><rect x="205.64" y="39.85" width="79.23" height="82.59" transform="translate(-8.87 34.72) rotate(-7.96)"></rect></g><rect x="200.33" y="40.59" width="79.23" height="82.59" transform="translate(-9.02 34) rotate(-7.96)" style="fill:#455a64"></rect><path d="M284.92,117.32l-78.52,11L195,46.45l78.51-11Z" style="fill:#FF725E"></path><rect x="210.98" y="51.69" width="57.93" height="60.38" transform="translate(-9.02 34) rotate(-7.96)" style="fill:#fafafa"></rect><path d="M215.49,116.19A9.07,9.07,0,0,1,214.3,118c-.78,1.1-1.88,2.59-3.13,4.21s-2.39,3.08-3.24,4.11a8.68,8.68,0,0,1-1.47,1.61,9.74,9.74,0,0,1,1.18-1.83c.78-1.1,1.89-2.59,3.14-4.22s2.4-3.08,3.25-4.11A8.89,8.89,0,0,1,215.49,116.19Z" style="fill:#263238"></path><path d="M272.84,108a8.7,8.7,0,0,1,1.84,1.18c1.1.78,2.59,1.89,4.21,3.13s3.08,2.4,4.11,3.25a8.89,8.89,0,0,1,1.61,1.46,8.75,8.75,0,0,1-1.83-1.17c-1.1-.79-2.59-1.89-4.22-3.14s-3.08-2.4-4.12-3.25A9.49,9.49,0,0,1,272.84,108Z" style="fill:#263238"></path><path d="M264.31,48.15a10.45,10.45,0,0,1,1.19-1.84c.78-1.09,1.88-2.58,3.13-4.21S271,39,271.88,38a9.37,9.37,0,0,1,1.46-1.61,9.33,9.33,0,0,1-1.18,1.84c-.78,1.09-1.89,2.58-3.14,4.21s-2.4,3.08-3.25,4.12A8.17,8.17,0,0,1,264.31,48.15Z" style="fill:#263238"></path><path d="M207,56.32a10,10,0,0,1-1.84-1.19c-1.1-.78-2.58-1.88-4.21-3.13s-3.07-2.39-4.11-3.24a9.62,9.62,0,0,1-1.61-1.47A9.13,9.13,0,0,1,197,48.47c1.1.78,2.59,1.89,4.22,3.14s3.08,2.4,4.12,3.25A9,9,0,0,1,207,56.32Z" style="fill:#263238"></path><path d="M272.65,107.8a1.38,1.38,0,0,1-.06-.29l-.12-.83c-.12-.75-.28-1.83-.48-3.23-.41-2.83-1-7-1.76-12.18-1.49-10.47-3.62-25.38-6.16-43.24l.25.19-57.2,8h0l.22-.29c3.06,22,5.91,42.49,8.32,59.81l-.25-.19,41.45-5.67,11.64-1.57,3.08-.41.8-.1a1.17,1.17,0,0,1,.28,0l-.25,0c-.19,0-.45.06-.77.12l-3,.44L257,110.09,215.46,116l-.21,0,0-.22C212.79,98.51,209.9,78,206.82,56l0-.26.25,0h0l57.21-8,.22,0,0,.22C267,65.89,269,80.87,270.46,91.38c.71,5.22,1.26,9.33,1.64,12.15.18,1.38.32,2.45.42,3.19.05.34.08.61.1.81Z" style="fill:#e0e0e0"></path><path d="M234.56,91.17a11.27,11.27,0,0,1-7-20.37c3.53-2.58,8.17-2.89,12.52-3.36a113.22,113.22,0,0,0,17.4-3.25,17.14,17.14,0,0,0-3,9.28c-.07,3.63,1,7.2.92,10.82a14.19,14.19,0,0,1-3.83,9.6A10.75,10.75,0,0,1,241.94,97a8.68,8.68,0,0,1-6.8-7.2" style="fill:#FF725E"></path><path d="M257.3,64.51a2,2,0,0,1-.44.3l-1.3.78A50.8,50.8,0,0,0,251,68.7a38.3,38.3,0,0,0-6,5.65,72.89,72.89,0,0,0-6,8.11,40,40,0,0,0-2.42,4.61A36.37,36.37,0,0,0,235,91.64a31,31,0,0,0-1.19,8.1,28.69,28.69,0,0,0,.47,5.51,17.75,17.75,0,0,1,.39,2,2,2,0,0,1-.18-.5c-.1-.33-.27-.82-.41-1.46a25.57,25.57,0,0,1-.64-5.56,30.39,30.39,0,0,1,1.09-8.23,37.26,37.26,0,0,1,1.62-4.64,41.85,41.85,0,0,1,2.44-4.68A70.9,70.9,0,0,1,244.64,74a37.39,37.39,0,0,1,6.09-5.62,41.84,41.84,0,0,1,4.73-3c.58-.32,1-.54,1.35-.7A1.92,1.92,0,0,1,257.3,64.51Z" style="fill:#263238"></path><path d="M250.06,87.87c0,.1-1.49-.52-4-.86a20.14,20.14,0,0,0-9.85,1.11l-.29.11-.05-.31c-.08-.44-.15-.91-.25-1.38a35.79,35.79,0,0,0-3.71-10.31c-1.36-2.48-2.43-3.87-2.36-3.93a5.24,5.24,0,0,1,.81.94,30,30,0,0,1,1.87,2.81,33.33,33.33,0,0,1,3.91,10.39c.1.48.16,1,.24,1.4l-.35-.2a19.4,19.4,0,0,1,10.09-1,16.84,16.84,0,0,1,2.94.76A4.13,4.13,0,0,1,250.06,87.87Z" style="fill:#263238"></path><path d="M251.72,78.68c0,.08-1.09-.4-2.9-.7a14.5,14.5,0,0,0-7,.58l-.22.08-.43.15.08-.44a11.8,11.8,0,0,0-.81-6.82C239.67,69.89,238.92,69,239,69s.23.17.56.56a10.12,10.12,0,0,1,1.16,1.84,11.41,11.41,0,0,1,1,7.06l-.35-.29.23-.08a13.64,13.64,0,0,1,7.28-.45,10.6,10.6,0,0,1,2.13.67C251.49,78.5,251.74,78.65,251.72,78.68Z" style="fill:#263238"></path><rect x="312.45" y="146.69" width="79.23" height="82.59" style="fill:#FF725E"></rect><g style="opacity:0.6000000000000001"><rect x="312.45" y="146.69" width="79.23" height="82.59"></rect></g><rect x="307.09" y="146.69" width="79.23" height="82.59" style="fill:#455a64"></rect><path d="M386.34,229.31H307.06V146.67h79.28Z" style="fill:#FF725E"></path><rect x="317.74" y="157.79" width="57.93" height="60.38" style="fill:#fafafa"></rect><path d="M317.74,218.58a10.06,10.06,0,0,1-1.43,1.66c-.93,1-2.23,2.3-3.68,3.74s-2.8,2.71-3.79,3.62a9.11,9.11,0,0,1-1.67,1.39,8.76,8.76,0,0,1,1.42-1.65c.92-1,2.23-2.3,3.69-3.74s2.8-2.72,3.79-3.63A9.11,9.11,0,0,1,317.74,218.58Z" style="fill:#263238"></path><path d="M375.66,218.43a9.84,9.84,0,0,1,1.67,1.43c1,.93,2.29,2.23,3.73,3.68s2.71,2.8,3.62,3.79a9.51,9.51,0,0,1,1.4,1.67,9,9,0,0,1-1.66-1.42c-1-.92-2.3-2.23-3.74-3.69s-2.72-2.8-3.63-3.79A9.11,9.11,0,0,1,375.66,218.43Z" style="fill:#263238"></path><path d="M375.51,158a8.78,8.78,0,0,1,1.43-1.67c.92-1,2.22-2.29,3.68-3.73s2.79-2.71,3.78-3.62a9.32,9.32,0,0,1,1.68-1.4,9.35,9.35,0,0,1-1.43,1.66c-.92,1-2.22,2.3-3.69,3.74s-2.8,2.72-3.79,3.63A9.3,9.3,0,0,1,375.51,158Z" style="fill:#263238"></path><path d="M317.58,158.1a8.58,8.58,0,0,1-1.66-1.43c-1-.92-2.3-2.22-3.74-3.68s-2.71-2.79-3.62-3.78a8.94,8.94,0,0,1-1.39-1.68,9.12,9.12,0,0,1,1.65,1.43c1,.92,2.3,2.22,3.74,3.69s2.72,2.8,3.63,3.79A9.74,9.74,0,0,1,317.58,158.1Z" style="fill:#263238"></path><path d="M375.51,218.18a1.64,1.64,0,0,1,0-.29c0-.21,0-.49,0-.85,0-.75,0-1.84,0-3.26,0-2.86,0-7-.05-12.3,0-10.58-.07-25.65-.12-43.68l.23.22-57.77,0h0l.25-.25c0,22.16,0,42.89,0,60.38l-.22-.22,41.83.11,11.74.06,3.11,0,.81,0h-.76l-3.06,0-11.7.06-42,.11h-.22v-.22c0-17.49,0-38.22,0-60.38v-.26h.26l57.77,0h.22v.23c-.05,18.09-.09,33.21-.11,43.82,0,5.26-.05,9.41-.06,12.26,0,1.39,0,2.47,0,3.21,0,.35,0,.62,0,.82S375.51,218.18,375.51,218.18Z" style="fill:#e0e0e0"></path><path d="M341.65,192.18a16.23,16.23,0,0,0,.7-13,7.29,7.29,0,0,0-2.32-3.4,3.56,3.56,0,0,0-3.92-.34c-1.24.8-1.64,2.44-1.65,3.93a12,12,0,0,0,4.66,9.49c1,.8,2.28,1.49,2.82,2.68" style="fill:#FF725E"></path><path d="M342.77,189.34c2.17,1.45,5,1.49,7.57,1.16a14.63,14.63,0,0,0,6-1.9,7.08,7.08,0,0,0,3.41-5.08,3,3,0,0,0-1.12-2.84,3.61,3.61,0,0,0-2.3-.31,19.34,19.34,0,0,0-8.17,2.57,12.74,12.74,0,0,0-5.47,6.47" style="fill:#FF725E"></path><path d="M338.2,199.84A16.5,16.5,0,0,1,350.87,193a4.82,4.82,0,0,1,3,.55,4.19,4.19,0,0,1,1.6,3.46,8.62,8.62,0,0,1-7.33,8.34,10,10,0,0,1-9.94-5.53" style="fill:#FF725E"></path><path d="M338.49,200.14c.91-1.14.78-2.76.58-4.21-.46-3.3-1.09-6.73-3.14-9.36a3.67,3.67,0,0,0-1.93-1.46,3.29,3.29,0,0,0-2.92,1,6.72,6.72,0,0,0-2,4.74,10.15,10.15,0,0,0,1.36,5,8.83,8.83,0,0,0,3.25,3.52,5.22,5.22,0,0,0,4.67.35" style="fill:#FF725E"></path><path d="M344.2,185.23a21.21,21.21,0,0,1-1.11-6.57,11.1,11.1,0,0,1,1.34-6,7.74,7.74,0,0,1,4.74-3.72,6,6,0,0,1,5.69,1.57c1.4,1.51,2,4.27.87,6a12.37,12.37,0,0,1-3,3.12c-2.94,2.15-6,3.4-8.57,5.55" style="fill:#FF725E"></path><path d="M350.57,173.11a19.8,19.8,0,0,0-1.95,2.19,20.86,20.86,0,0,0-3.15,7h0c-1,2.79-2.11,6.06-3.42,9.51a117,117,0,0,1-6,13.49c-.89,1.67-1.67,3-2.23,3.89a9.19,9.19,0,0,1-.92,1.35,9.38,9.38,0,0,1,.75-1.46c.5-.92,1.23-2.26,2.07-3.94a145.16,145.16,0,0,0,5.82-13.51c1.3-3.44,2.47-6.71,3.48-9.48v0a20,20,0,0,1,3.38-7,10.68,10.68,0,0,1,1.52-1.58A2.64,2.64,0,0,1,350.57,173.11Z" style="fill:#263238"></path><path d="M355.59,185a47.75,47.75,0,0,0-6.88,1.5,46.81,46.81,0,0,0-6.37,3,6.49,6.49,0,0,1,1.64-1.3A20.89,20.89,0,0,1,353.5,185,6.47,6.47,0,0,1,355.59,185Z" style="fill:#263238"></path><path d="M336.89,179.91a3.52,3.52,0,0,1,1.64.92,9,9,0,0,1,2.55,3.78A17.12,17.12,0,0,1,342,189a6.43,6.43,0,0,1,0,1.88,6.86,6.86,0,0,1-.4-1.83,24.83,24.83,0,0,0-1.06-4.3,10.22,10.22,0,0,0-2.31-3.68C337.48,180.32,336.84,180,336.89,179.91Z" style="fill:#263238"></path><path d="M351.66,198.51a28.64,28.64,0,0,0-6.91-.34,29,29,0,0,0-6.67,1.84,5.9,5.9,0,0,1,1.79-1,16,16,0,0,1,4.82-1.31,16.27,16.27,0,0,1,5,.22A5.79,5.79,0,0,1,351.66,198.51Z" style="fill:#263238"></path><path d="M332.42,190.17A4.27,4.27,0,0,1,334,191a12.35,12.35,0,0,1,4.57,6.92,4.23,4.23,0,0,1,.18,1.73,22.4,22.4,0,0,0-2.3-5.3A22.78,22.78,0,0,0,332.42,190.17Z" style="fill:#263238"></path><rect x="354.54" y="41.22" width="79.23" height="82.59" style="fill:#FF725E"></rect><g style="opacity:0.6000000000000001"><rect x="354.54" y="41.22" width="79.23" height="82.59"></rect></g><rect x="349.17" y="41.22" width="79.23" height="82.59" style="fill:#455a64"></rect><path d="M428.42,123.83H349.15V41.2h79.27Z" style="fill:#FF725E"></path><rect x="359.82" y="52.32" width="57.93" height="60.38" style="fill:#fafafa"></rect><path d="M359.82,113.11a9.35,9.35,0,0,1-1.43,1.66c-.92,1-2.22,2.3-3.68,3.73s-2.8,2.72-3.78,3.63a9.48,9.48,0,0,1-1.68,1.39,9.51,9.51,0,0,1,1.42-1.66c.93-1,2.23-2.3,3.69-3.74s2.81-2.72,3.79-3.62A9,9,0,0,1,359.82,113.11Z" style="fill:#263238"></path><path d="M417.75,113a9.35,9.35,0,0,1,1.66,1.43c1,.92,2.3,2.22,3.73,3.68s2.72,2.8,3.63,3.79a9.25,9.25,0,0,1,1.39,1.67,9.28,9.28,0,0,1-1.65-1.42c-1-.93-2.31-2.23-3.74-3.69s-2.73-2.81-3.63-3.79A8.61,8.61,0,0,1,417.75,113Z" style="fill:#263238"></path><path d="M417.59,52.48A9.35,9.35,0,0,1,419,50.82c.92-1,2.22-2.3,3.68-3.73s2.8-2.72,3.79-3.62a9.09,9.09,0,0,1,1.67-1.4,9.51,9.51,0,0,1-1.42,1.66c-.93,1-2.23,2.3-3.69,3.74s-2.81,2.72-3.79,3.63A8.75,8.75,0,0,1,417.59,52.48Z" style="fill:#263238"></path><path d="M359.66,52.63A9.35,9.35,0,0,1,358,51.2c-1-.92-2.3-2.22-3.73-3.68s-2.72-2.8-3.62-3.78a9.32,9.32,0,0,1-1.4-1.68,9.51,9.51,0,0,1,1.66,1.42c1,.93,2.3,2.23,3.74,3.69S357.37,50,358.28,51A9.13,9.13,0,0,1,359.66,52.63Z" style="fill:#263238"></path><path d="M417.59,112.71s0-.11,0-.3,0-.48,0-.84c0-.76,0-1.85,0-3.26,0-2.86,0-7-.06-12.31,0-10.57-.07-25.64-.11-43.68l.22.23-57.76,0h0l.26-.26c0,22.17,0,42.9,0,60.39l-.22-.22,41.83.11,11.75.06,3.11,0h.8l.28,0h-1l-3.07,0-11.7,0-42,.12h-.22v-.22c0-17.49,0-38.22,0-60.39v-.25h.27l57.76,0h.22v.22c0,18.1-.08,33.22-.11,43.83,0,5.26,0,9.4-.06,12.25,0,1.4,0,2.47,0,3.22,0,.35,0,.62,0,.82S417.59,112.71,417.59,112.71Z" style="fill:#e0e0e0"></path><path d="M395.23,95.25a36.21,36.21,0,0,0-5.31-11.9c-.92-1.36-2.14-2.76-3.78-2.88a3.72,3.72,0,0,0-3.2,1.67,7.17,7.17,0,0,0-1.14,3.56c-2.79-1.44-6.27-1.94-9.08-.52s-4.51,5.11-3.09,7.92,5,3.63,8.11,4.13a3.5,3.5,0,0,0-.87,4.3,5.17,5.17,0,0,0,3.79,2.6,7.47,7.47,0,0,0,4.72-.45,27.14,27.14,0,0,0,9.85-8.43" style="fill:#FF725E"></path><path d="M406.41,96.69a5.9,5.9,0,0,1-1.24,0c-.8,0-1.95-.14-3.37-.28-2.84-.29-6.75-.8-11-1.57s-8.13-1.68-10.89-2.41c-1.38-.37-2.49-.68-3.25-.92a6.36,6.36,0,0,1-1.17-.42,5,5,0,0,1,1.22.22l3.29.76c2.77.64,6.62,1.48,10.89,2.25s8.16,1.35,11,1.72l3.35.45A5.56,5.56,0,0,1,406.41,96.69Z" style="fill:#263238"></path><path d="M385.68,83a2.74,2.74,0,0,1,.48.79c.28.53.65,1.31,1,2.3a35.63,35.63,0,0,1,2.17,8.14l0,.2-.19.08-.69.29a42.14,42.14,0,0,0-7.65,4.41c-1.84,1.33-2.89,2.27-2.95,2.21a3.79,3.79,0,0,1,.68-.74,26.72,26.72,0,0,1,2.05-1.76,35.76,35.76,0,0,1,7.66-4.59l.7-.3-.16.27a40.62,40.62,0,0,0-2-8.08C386.16,84.21,385.61,83,385.68,83Z" style="fill:#263238"></path><path d="M378.77,86.36A15.47,15.47,0,0,1,380,88.22c.73,1.17,1.81,2.75,3,4.55l.21.31-.36.08-.73.18c-2.27.52-4.35.86-5.85,1.14a14.54,14.54,0,0,1-2.45.36,9.85,9.85,0,0,1,2.37-.72c1.49-.37,3.56-.77,5.82-1.29l.71-.17-.15.39c-1.19-1.79-2.23-3.42-2.89-4.65A7.61,7.61,0,0,1,378.77,86.36Z" style="fill:#263238"></path><path d="M400.05,80a36.19,36.19,0,0,0,3.55-12.55c.16-1.63.13-3.49-1.05-4.63a3.76,3.76,0,0,0-3.54-.77,7.11,7.11,0,0,0-3.15,2c-1.22-2.9-3.57-5.51-6.64-6.22s-6.73,1-7.44,4.1,1.5,6,3.57,8.37a3.5,3.5,0,0,0-3.42,2.74,5.18,5.18,0,0,0,1.25,4.43,7.51,7.51,0,0,0,3.9,2.67,27.18,27.18,0,0,0,13-.15" style="fill:#FF725E"></path><path d="M400.05,63.84a2.75,2.75,0,0,1-.06.93c-.07.59-.22,1.44-.45,2.48a35.12,35.12,0,0,1-2.87,7.92l-.09.18-.2,0-.73-.15a41.53,41.53,0,0,0-8.8-.75c-2.27,0-3.67.21-3.68.12a3.93,3.93,0,0,1,1-.21c.63-.1,1.55-.21,2.7-.28a35.75,35.75,0,0,1,8.91.61l.74.15-.28.14a42.15,42.15,0,0,0,3-7.78C399.75,65.12,400,63.83,400.05,63.84Z" style="fill:#263238"></path><path d="M392.82,61.65a9.16,9.16,0,0,1,.14,2.17c0,1.35,0,3.22,0,5.32v.33l-.32-.09-.6-.17c-2.16-.59-4.1-1.16-5.5-1.59a11.09,11.09,0,0,1-2.24-.81,11,11,0,0,1,2.33.45c1.43.35,3.39.86,5.55,1.45l.6.17-.33.24c0-2.09.12-4,.19-5.3A9.92,9.92,0,0,1,392.82,61.65Z" style="fill:#263238"></path><path d="M387.58,63.55s.15.1.39.33l1,1a22.34,22.34,0,0,1,1.56,1.66c.59.66,1.26,1.42,1.94,2.31A71.64,71.64,0,0,1,397,75.26a84.57,84.57,0,0,1,8.21,17.34,68.53,68.53,0,0,1,2.08,7.57q.18.81.33,1.56c.08.49.15,1,.22,1.4.14.88.25,1.63.29,2.26s.08,1,.11,1.43a2.7,2.7,0,0,1,0,.5s-.06-.16-.11-.49-.13-.85-.21-1.42-.21-1.36-.38-2.23c-.08-.44-.16-.9-.26-1.39s-.23-1-.36-1.54a74.49,74.49,0,0,0-2.18-7.49c-1-2.77-2.19-5.77-3.62-8.84s-3-5.89-4.54-8.41a77.18,77.18,0,0,0-4.4-6.43c-.66-.9-1.3-1.67-1.87-2.35s-1.05-1.26-1.48-1.71l-1-1.07A2.45,2.45,0,0,1,387.58,63.55Z" style="fill:#263238"></path><rect x="59.64" y="41.22" width="79.23" height="82.59" style="fill:#FF725E"></rect><g style="opacity:0.6000000000000001"><rect x="59.64" y="41.22" width="79.23" height="82.59"></rect></g><rect x="54.27" y="41.22" width="79.23" height="82.59" style="fill:#455a64"></rect><path d="M133.53,123.83H54.25V41.2h79.28Z" style="fill:#FF725E"></path><rect x="64.92" y="52.32" width="57.93" height="60.38" style="fill:#fafafa"></rect><path d="M64.92,113.11a9.35,9.35,0,0,1-1.43,1.66c-.92,1-2.22,2.3-3.68,3.73S57,121.22,56,122.13a9.48,9.48,0,0,1-1.68,1.39,9.51,9.51,0,0,1,1.42-1.66c.93-1,2.23-2.3,3.7-3.74s2.8-2.72,3.79-3.62A8.77,8.77,0,0,1,64.92,113.11Z" style="fill:#263238"></path><path d="M122.85,113a9,9,0,0,1,1.66,1.43c1,.92,2.3,2.22,3.74,3.68s2.71,2.8,3.62,3.79a8.74,8.74,0,0,1,1.39,1.67,9.28,9.28,0,0,1-1.65-1.42c-1-.93-2.3-2.23-3.74-3.69s-2.72-2.81-3.63-3.79A9.11,9.11,0,0,1,122.85,113Z" style="fill:#263238"></path><path d="M122.69,52.48a10.57,10.57,0,0,1,1.43-1.66c.93-1,2.23-2.3,3.68-3.73s2.8-2.72,3.79-3.62a9.51,9.51,0,0,1,1.67-1.4,9,9,0,0,1-1.42,1.66c-.92,1-2.23,2.3-3.69,3.74s-2.8,2.72-3.79,3.63A8.75,8.75,0,0,1,122.69,52.48Z" style="fill:#263238"></path><path d="M64.76,52.63A9.35,9.35,0,0,1,63.1,51.2c-1-.92-2.29-2.22-3.73-3.68s-2.71-2.8-3.62-3.78a9.32,9.32,0,0,1-1.4-1.68A9.51,9.51,0,0,1,56,43.48c1,.93,2.3,2.23,3.74,3.69S62.47,50,63.38,51A8.62,8.62,0,0,1,64.76,52.63Z" style="fill:#263238"></path><path d="M122.69,112.71s0-.11,0-.3,0-.48,0-.84c0-.76,0-1.85,0-3.26,0-2.86,0-7-.06-12.31,0-10.57-.06-25.64-.11-43.68l.22.23-57.76,0h0l.26-.26c0,22.17,0,42.9,0,60.39l-.22-.22,41.83.11,11.75.06,3.11,0h.8l.28,0h-1l-3.07,0-11.7,0-42,.12H64.7v-.22c0-17.49,0-38.22,0-60.39v-.25h.26l57.76,0h.23v.22c0,18.1-.09,33.22-.12,43.83,0,5.26,0,9.4-.06,12.25,0,1.4,0,2.47,0,3.22l0,.82A1.1,1.1,0,0,1,122.69,112.71Z" style="fill:#e0e0e0"></path><path d="M83.21,98.88A12.82,12.82,0,0,1,82.64,82c1.61-1.84,3.75-3.19,5.24-5.14,3.23-4.21,3.18-10.84,7.68-13.66,3.28-2.06,8-.89,10.38,2.16a11,11,0,0,1,1,11c-1.15,2.62-3.15,4.85-4,7.59s-.36,5.86-1.23,8.65c-1.05,3.37-4.62,5.5-7.93,6.73a14.81,14.81,0,0,1-10.65-.47" style="fill:#FF725E"></path><path d="M99.5,71.06a11.72,11.72,0,0,1-.56,1.6c-.39,1-1,2.47-1.8,4.24A117.07,117.07,0,0,1,90,90.31a117.31,117.31,0,0,1-8.82,12.39c-1.24,1.5-2.27,2.7-3,3.5A12.81,12.81,0,0,1,77,107.41a10.2,10.2,0,0,1,1-1.35c.69-.83,1.68-2.06,2.87-3.59A143.55,143.55,0,0,0,89.54,90a143.22,143.22,0,0,0,7.27-13.29c.84-1.75,1.5-3.18,1.94-4.17A11.23,11.23,0,0,1,99.5,71.06Z" style="fill:#263238"></path><path d="M87.52,81.53a21,21,0,0,1,.46,3c.23,1.9.51,4.56.81,7.56l-.39-.2,1.25-.73C92.54,89.52,95.18,88,97.1,87a25.72,25.72,0,0,1,3.16-1.63,24.14,24.14,0,0,1-3,2c-1.88,1.15-4.48,2.7-7.38,4.39l-1.25.73-.35.2,0-.4c-.27-3-.5-5.66-.63-7.58A18.33,18.33,0,0,1,87.52,81.53Z" style="fill:#263238"></path><path d="M102.73,77.06a9.41,9.41,0,0,1-2,1.09c-1.23.62-3,1.43-4.86,2.31l-.6.27-.31.14L95,80.53c-.31-1.93-.55-3.65-.7-4.89a9.16,9.16,0,0,1-.15-2,8.16,8.16,0,0,1,.5,2c.24,1.23.54,2.94.86,4.87l-.37-.19.6-.28c1.91-.87,3.66-1.63,4.93-2.16A9.26,9.26,0,0,1,102.73,77.06Z" style="fill:#263238"></path></g><g id="freepik--Character--inject-100"><path d="M338.28,468.82,304.37,295.38h0c-.07-.26-.13-.5-.19-.75v0h0c-5.14-20.38-9.2-25.38-9.2-25.38l-50.08,1.37c-3.92,7.06-4.42,24-4.42,24-.54,2.07,7.17,170.65,7.17,170.65l20.76-.06,5.67-159.87L318.9,469.1Z" style="fill:#263238"></path><path d="M287.35,299.9c0,.16-5.53,1.74-12.44,3.53s-12.56,3.11-12.61,2.95,5.53-1.75,12.45-3.54S287.31,299.73,287.35,299.9Z" style="fill:#455a64"></path><path d="M248.55,200.18l-33.33-28.75.64-41,.64-.87c.35-.47.75-1,1.21-1.57a7.72,7.72,0,0,1,1.92-1.68,11.5,11.5,0,0,1,2.85-1.4c1-.22,1.18-1.46.37-1.81s-3.44.19-6,2.08-1.28-2.85-.86-4.59,1.47-7.17,1-7.71c-.64-.79-1.63-.24-2,1.51s-1.89,6.9-2.8,6.66,1.37-9.06,1.37-9.06.79-1.81-.25-2.13c-1.89-.57-3.6,9-3.74,9.87-.1.64-1.1.41-1-.27s2.47-8.74.56-9.34c-1.47-.46-1.49,7.83-2.9,9.26s.66-6.3-.76-6.68c-.52-.14-.94-.18-1.49,4.41a92.11,92.11,0,0,0-1,9.58h0l-5.78,49.37,33.56,37.72Z" style="fill:#ffbe9d"></path><polygon points="249.62 465.19 246.35 476.12 265.72 475.89 266.68 465.19 249.62 465.19" style="fill:#FF725E"></polygon><path d="M266.1,474.06a12.78,12.78,0,0,1-2.82.22c-1.75,0-4.16,0-6.82,0l-6.8-.21a14.52,14.52,0,0,1-2.82-.22,11.47,11.47,0,0,1,2.83-.22c1.74,0,4.15,0,6.81,0l6.8.21A13.59,13.59,0,0,1,266.1,474.06Z" style="fill:#263238"></path><path d="M257.79,465.83c.17,0,.2,1.84.08,4.09s-.36,4.06-.53,4.05-.21-1.84-.08-4.09S257.62,465.82,257.79,465.83Z" style="fill:#263238"></path><g style="opacity:0.6000000000000001"><polyline points="246.35 476.12 265.72 475.89 265.89 474.06 246.67 473.81 246.34 475.9" style="fill:#fff"></polyline></g><path d="M264.36,111.11c-1.27.73,2.72,7.67,1,6.65s-3.89-9-5.18-8.2c-1.69,1.07,2.62,8.25,2.94,8.89s-.6,1.09-.85.5c-.38-.84-4.49-9.61-6.16-8.58-.92.58.31,2.13.31,2.13s4.46,7.93,3.65,8.4-3.59-4.11-4.42-5.72-1.91-1.86-2.32-.94c-.29.64,2.13,5.61,3,7.18s3.28,5.84.35,4.66-5.61-1-6.3-.47-.15,1.68.82,1.65a11.86,11.86,0,0,1,3.12.62,7.77,7.77,0,0,1,2.29,1.13c.6.44,1.11.84,1.57,1.21l.84.67,16.7,41.18-15.17,35.32L284,216.14l10.57-46.7L270.38,124h0a89.5,89.5,0,0,0-3.43-9C265.23,110.7,264.84,110.84,264.36,111.11Z" style="fill:#ffbe9d"></path><path d="M338,471.24l0-2.42-19.09.28-.08,6.61,1.18.06c5.28.26,26.85,1,30.37-.06C354.29,474.59,338,471.24,338,471.24Z" style="fill:#FF725E"></path><g style="opacity:0.6000000000000001"><path d="M325.75,475.54a6.2,6.2,0,0,0-2.47-3.78,6.79,6.79,0,0,0-4.48-1.27l0,5Z" style="fill:#fff"></path></g><g style="opacity:0.6000000000000001"><path d="M346,473.14s5.7,1.51,5,2.38-22.53.94-32.16.19l0-.4,25.46.12S344.86,473.19,346,473.14Z" style="fill:#fff"></path></g><path d="M318.54,475.3l.33,0,.95.05,3.47.13c2.94.09,7,.16,11.47.15s8.54-.1,11.48-.2l3.47-.15.94-.05.33,0h-.33l-.94,0-3.48.07c-2.93.07-7,.14-11.47.15s-8.53,0-11.47-.09l-3.47-.06h-1.28Z" style="fill:#263238"></path><path d="M344.3,475.71a6.92,6.92,0,0,1,.64-1.54,7.1,7.1,0,0,1,1.17-1.24,2.49,2.49,0,0,0-1.37,1.12A2.26,2.26,0,0,0,344.3,475.71Z" style="fill:#263238"></path><path d="M338.64,473.07c.05,0,.32-.28.6-.69s.45-.76.4-.8-.32.28-.6.69S338.59,473,338.64,473.07Z" style="fill:#263238"></path><path d="M337.09,472.31s.34-.14.67-.42.55-.54.51-.58-.34.14-.67.42S337,472.27,337.09,472.31Z" style="fill:#263238"></path><path d="M336.1,470.64a2.32,2.32,0,0,0,1,.11,2.27,2.27,0,0,0,1-.1,2.32,2.32,0,0,0-1-.11A2.27,2.27,0,0,0,336.1,470.64Z" style="fill:#263238"></path><path d="M335.75,469.45a2,2,0,0,0,1.12.3,2.06,2.06,0,0,0,1.14-.14,5.31,5.31,0,0,0-1.13-.07A6.86,6.86,0,0,0,335.75,469.45Z" style="fill:#263238"></path><path d="M339.28,471.51a3.51,3.51,0,0,0,1.23,0,6.87,6.87,0,0,0,1.3-.27,3.72,3.72,0,0,0,.75-.29.62.62,0,0,0,.3-.35.44.44,0,0,0-.19-.46,2.36,2.36,0,0,0-2.78.62,2,2,0,0,0-.4.77.76.76,0,0,0,0,.3,3.26,3.26,0,0,1,.56-1,2.18,2.18,0,0,1,1-.64,2.08,2.08,0,0,1,1.47.09c.19.13.12.35-.1.47a3.81,3.81,0,0,1-.69.27,8.5,8.5,0,0,1-1.26.31C339.74,471.48,339.28,471.48,339.28,471.51Z" style="fill:#263238"></path><path d="M339.6,471.57a1.13,1.13,0,0,0,.13-.79,1.78,1.78,0,0,0-.34-.84,1.27,1.27,0,0,0-1-.58.46.46,0,0,0-.37.53,1.17,1.17,0,0,0,.21.51,3.21,3.21,0,0,0,.59.69,1.77,1.77,0,0,0,.7.46s-.24-.2-.59-.56a4.12,4.12,0,0,1-.51-.69c-.17-.24-.29-.67,0-.72a1.11,1.11,0,0,1,.82.48,1.91,1.91,0,0,1,.35.74A4.93,4.93,0,0,1,339.6,471.57Z" style="fill:#263238"></path><path d="M318.9,470.44s.55-.05,1.41,0a6.41,6.41,0,0,1,3.09,1.17,5.78,5.78,0,0,1,1.94,2.52c.3.76.33,1.28.38,1.27a1,1,0,0,0,0-.36,4.44,4.44,0,0,0-.21-1,5.56,5.56,0,0,0-2-2.64,6,6,0,0,0-3.22-1.15,5.69,5.69,0,0,0-1.05,0C319,470.39,318.9,470.42,318.9,470.44Z" style="fill:#263238"></path><path d="M328.14,473.8a11.51,11.51,0,0,0,2.79.25,11.28,11.28,0,0,0,2.79-.22c0-.06-1.25,0-2.79,0S328.15,473.74,328.14,473.8Z" style="fill:#263238"></path><path d="M324.39,473.81s.11.24.24.51.2.5.26.5.1-.28-.05-.59S324.43,473.77,324.39,473.81Z" style="fill:#263238"></path><path d="M323,472.18c-.05,0,.08.23.28.41s.39.3.44.26-.08-.22-.28-.41S323,472.14,323,472.18Z" style="fill:#263238"></path><path d="M320.94,471.44c0,.06.27.06.55.15s.49.23.54.19-.12-.29-.47-.4S320.92,471.38,320.94,471.44Z" style="fill:#263238"></path><path d="M319.5,471.09c0,.06.09.15.25.2s.3.06.33,0-.09-.15-.25-.21S319.52,471,319.5,471.09Z" style="fill:#263238"></path><path d="M294.61,225.11l-5.44,28.31c11.35,15.79,12.38,29.34,12.38,29.34L240.5,289.9c0-11.06,8.05-28.94,8.05-28.94l-9.8-33.45L221,204.4l17.61-15.86c-.34.89,16.5,10.64,16.5,10.64l24.19.2a20.86,20.86,0,0,1,3.48.7l11.82-30.64a42.94,42.94,0,0,1,8.53,29.9c-1.91,19.35-4.22,14.54-8.53,25.77" style="fill:#FF725E"></path><path d="M296.32,265.26a1.83,1.83,0,0,1,.23.6,3.51,3.51,0,0,1-.05,1.84,5.45,5.45,0,0,1-1.55,2.48,6.84,6.84,0,0,1-3.46,1.73,17.41,17.41,0,0,1-4.68.23,35.42,35.42,0,0,0-5.29-.11,8.35,8.35,0,0,0-5.19,2.15c-1.5,1.34-2.67,3.12-4.19,4.71a9.91,9.91,0,0,1-2.59,2,7,7,0,0,1-3.11.76,11.61,11.61,0,0,1-5.72-1.68,45.28,45.28,0,0,1-4.38-3.08,24.24,24.24,0,0,0-3.87-2.48,9.27,9.27,0,0,0-6.44-.74,7.44,7.44,0,0,0-2.15,1.11,2.56,2.56,0,0,1,.46-.44,5.53,5.53,0,0,1,1.63-.87,9.25,9.25,0,0,1,6.65.61,23.12,23.12,0,0,1,4,2.46,43.83,43.83,0,0,0,4.36,3,11.11,11.11,0,0,0,5.47,1.59,6.56,6.56,0,0,0,2.89-.71,9.44,9.44,0,0,0,2.45-1.91c1.47-1.54,2.66-3.34,4.22-4.73a8.41,8.41,0,0,1,2.61-1.63,10.25,10.25,0,0,1,2.88-.62,35.86,35.86,0,0,1,5.36.16,17.55,17.55,0,0,0,4.58-.16,6.06,6.06,0,0,0,4.88-3.91,3.68,3.68,0,0,0,.15-1.76C296.38,265.47,296.29,265.27,296.32,265.26Z" style="fill:#fafafa"></path><path d="M289.72,254.18s-.55.45-1.51,1.28-2.25,2.15-3.9,3.74a26.17,26.17,0,0,1-2.88,2.42,11,11,0,0,1-3.93,1.84,9.35,9.35,0,0,1-4.8-.18,16.14,16.14,0,0,1-4.62-2.27c-2.91-2-5.17-4.48-7.57-6.26a17.08,17.08,0,0,0-3.62-2.18,10.66,10.66,0,0,0-3.54-.87,8.2,8.2,0,0,0-5.09,1.14,14.34,14.34,0,0,0-1.5,1.26,4.8,4.8,0,0,1,1.38-1.43,8.22,8.22,0,0,1,5.23-1.34,11,11,0,0,1,3.69.84,17.85,17.85,0,0,1,3.74,2.19c2.46,1.8,4.74,4.26,7.57,6.22a15.65,15.65,0,0,0,4.47,2.21,9,9,0,0,0,4.55.2,10.75,10.75,0,0,0,3.8-1.73,27.54,27.54,0,0,0,2.87-2.33c1.67-1.55,3-2.83,4-3.62.51-.39.91-.69,1.19-.87S289.71,254.16,289.72,254.18Z" style="fill:#fafafa"></path><path d="M242.3,239.9a2.47,2.47,0,0,1,.29-.52,8.4,8.4,0,0,1,1.06-1.36,10.88,10.88,0,0,1,5.47-3.07,10.09,10.09,0,0,1,4.39-.06,14.78,14.78,0,0,1,4.64,2c1.52.91,3,2,4.61,3A14.8,14.8,0,0,0,268.1,242a6.76,6.76,0,0,0,5.41-1.17,15,15,0,0,0,3.32-4.23,16.33,16.33,0,0,1,3.07-4,9.28,9.28,0,0,1,3.94-2,9.76,9.76,0,0,1,6.24.6,6.31,6.31,0,0,1,1.92,1.27,18.72,18.72,0,0,0-2-1.09,9.76,9.76,0,0,0-6.07-.42,9,9,0,0,0-3.74,1.92,16,16,0,0,0-2.94,3.91,15.08,15.08,0,0,1-3.42,4.38,6.64,6.64,0,0,1-2.73,1.26,8.13,8.13,0,0,1-3.07,0,15.23,15.23,0,0,1-5.53-2.26c-1.63-1-3.1-2.13-4.59-3a14.35,14.35,0,0,0-4.48-1.95,9.83,9.83,0,0,0-4.22,0,11,11,0,0,0-5.41,2.86C242.75,239.2,242.35,239.94,242.3,239.9Z" style="fill:#fafafa"></path><path d="M247.92,199.3a10.73,10.73,0,0,0-3.94.22,8.37,8.37,0,0,0-3.66,2.12,15.18,15.18,0,0,0-2.67,4.52,10.28,10.28,0,0,1-1.52,2.4A7.53,7.53,0,0,1,234,210.2a8.36,8.36,0,0,1-4.33,1,7.45,7.45,0,0,1-2.9-.71,5,5,0,0,1-.7-.41c-.15-.11-.23-.17-.22-.18a9.93,9.93,0,0,0,3.83.93,8.22,8.22,0,0,0,4.09-1,7.32,7.32,0,0,0,1.94-1.56,9.91,9.91,0,0,0,1.44-2.29A14.74,14.74,0,0,1,240,201.3a8.44,8.44,0,0,1,3.9-2.13,7.73,7.73,0,0,1,3-.15,4.68,4.68,0,0,1,.79.17C247.84,199.25,247.93,199.29,247.92,199.3Z" style="fill:#fafafa"></path><path d="M303.21,206c-.08,0-.48-.73-1.32-1.81a14.65,14.65,0,0,0-8.94-5.38c-1.35-.23-2.21-.22-2.21-.31a5.6,5.6,0,0,1,2.26,0,13.11,13.11,0,0,1,9.18,5.52A6.25,6.25,0,0,1,303.21,206Z" style="fill:#fafafa"></path><path d="M256.38,151.82c-5.07,2.3-7.11,7.91-7.61,13.06s0,10.52-2,15.34c-1.67,4.06-5.11,7.77-4.73,12.13.29,3.24,2.71,6.1,3.15,9.34.85,6.26-5.79,11.86-4.59,18.08.56,2.85,6.79,9.83,9.4,11.51L264,228.91l1.87-6.4,1.33,6.08L279.52,227l.64-6.76,2.5,6,4.89.79a12.27,12.27,0,0,0,9-3.41,8.13,8.13,0,0,0,1.85-8.56c-1.62-4-6.63-6.59-7.4-10.79-.7-3.81,2.4-7.58,1.42-11.33-1.08-4.19-6.68-6.39-8-10.51-1.63-5,3.57-10.22,1.55-15.05-1.19-2.84-4.62-4.63-5.54-7.55-.63-2,.05-4.15-.4-6.19-.79-3.52-4.75-5.8-8.61-6.6a20.24,20.24,0,0,0-14,2,14.21,14.21,0,0,0-7.28,10.78" style="fill:#263238"></path><path d="M264,148.24a17.1,17.1,0,0,1,22.87,12.65c.77,3.92.2,8.16,1.9,11.78,1.85,3.93,6.2,6.63,6.86,10.92s-2.46,7.92-3.1,12.06c-.68,4.32,1.36,8.69.86,13A11.31,11.31,0,0,1,273.69,215" style="fill:#263238"></path><path d="M284.88,165.9a3.1,3.1,0,0,1-.92.13,20.69,20.69,0,0,1-2.51.05,10.51,10.51,0,0,1-3.68-.8,6.32,6.32,0,0,1-3.25-3.27,7.4,7.4,0,0,1-.4-4.6,8.49,8.49,0,0,1,1.7-3.36,9.13,9.13,0,0,1,1.85-1.72,2.59,2.59,0,0,1,.81-.45,17.62,17.62,0,0,0-2.37,2.4,8.41,8.41,0,0,0-1.52,3.24,7.08,7.08,0,0,0,.41,4.29,5.91,5.91,0,0,0,3,3,10.55,10.55,0,0,0,3.5.87C283.56,165.87,284.87,165.81,284.88,165.9Z" style="fill:#FF725E"></path><path d="M267.15,228.59A19.28,19.28,0,0,0,270.4,227a6.77,6.77,0,0,0,2.62-3.16,15.9,15.9,0,0,0,1-5.46,23.94,23.94,0,0,0-4.36-13.63c-1.52-2.27-3.47-4.44-5.1-7a17.52,17.52,0,0,1-2-4.18,14.23,14.23,0,0,1-.59-4.74,24.93,24.93,0,0,1,2.45-9c1.27-2.75,2.73-5.25,3.89-7.74a25.49,25.49,0,0,0,2.39-7.36,18,18,0,0,0-.32-6.7,18.22,18.22,0,0,0-4.58-8.53,21.65,21.65,0,0,0-2.79-2.28,11.4,11.4,0,0,1,2.93,2.13,18.62,18.62,0,0,1,5.19,15.44,25.62,25.62,0,0,1-2.39,7.5c-1.16,2.52-2.61,5-3.85,7.75a24.53,24.53,0,0,0-2.4,8.82,13.42,13.42,0,0,0,.57,4.57,16.83,16.83,0,0,0,1.93,4.06c1.59,2.51,3.53,4.69,5.07,7a24.13,24.13,0,0,1,4.33,13.91,16,16,0,0,1-1.06,5.56,6.88,6.88,0,0,1-2.78,3.22,11.5,11.5,0,0,1-2.45,1.13l-.67.2C267.23,228.59,267.15,228.6,267.15,228.59Z" style="fill:#455a64"></path><path d="M257.24,229.67a.65.65,0,0,1-.17-.14c-.11-.1-.27-.24-.46-.44a7.31,7.31,0,0,1-1.33-2.08,6.1,6.1,0,0,1-.24-3.88,7.68,7.68,0,0,1,3.07-4.13c1.58-1.14,3.64-1.76,5.36-3.1a5.47,5.47,0,0,0,1.87-2.7,6.59,6.59,0,0,0,0-3.5,13.85,13.85,0,0,0-4-6.52c-1.89-1.94-4.13-3.79-5.64-6.37a10.37,10.37,0,0,1-1.39-4.15,14.57,14.57,0,0,1,.19-4.23,41.1,41.1,0,0,1,2.43-7.54,28.59,28.59,0,0,0,1.95-6.79,12,12,0,0,0-.71-6,9.07,9.07,0,0,0-3.19-3.83,24.65,24.65,0,0,1-3-2.49,4.7,4.7,0,0,1-1.21-2.14,2.45,2.45,0,0,1-.08-.86s0,.3.18.83a4.85,4.85,0,0,0,1.25,2,27.18,27.18,0,0,0,3,2.4,14.65,14.65,0,0,1,1.85,1.6,8.37,8.37,0,0,1,1.5,2.31,12.27,12.27,0,0,1,.8,6.21,29.06,29.06,0,0,1-1.93,6.91,41.43,41.43,0,0,0-2.38,7.46,11.41,11.41,0,0,0,1.15,8c1.45,2.47,3.65,4.31,5.56,6.27a14.48,14.48,0,0,1,4.12,6.77,7.22,7.22,0,0,1-.05,3.75,5.91,5.91,0,0,1-2,2.9c-1.84,1.39-3.89,2-5.42,3.06a7.44,7.44,0,0,0-3,3.91,5.9,5.9,0,0,0,.15,3.72A9.48,9.48,0,0,0,257.24,229.67Z" style="fill:#455a64"></path><path d="M288.1,227a3,3,0,0,1-.34-.58,9.28,9.28,0,0,1-.66-1.83,30,30,0,0,1-.77-7.08c0-1.51,0-3.15-.09-4.91a25.12,25.12,0,0,0-.21-2.7,9.2,9.2,0,0,0-.88-2.67c-1.78-3.52-5.32-6.27-8.25-9.82a12.41,12.41,0,0,1-3-6,19.52,19.52,0,0,1,.2-6.27,24.13,24.13,0,0,1,1.83-5.38c.73-1.61,1.51-3.06,2.14-4.42a16.23,16.23,0,0,0,1.9-6.73c0-.41,0-.79,0-1.1s-.07-.58-.1-.81a3.14,3.14,0,0,1-.05-.68,3.21,3.21,0,0,1,.15.66c.05.24.1.51.16.81s0,.7.06,1.12a15.79,15.79,0,0,1-1.77,6.89c-.61,1.37-1.37,2.83-2.08,4.44a23.3,23.3,0,0,0-1.75,5.29,19.47,19.47,0,0,0-.17,6.12,12.14,12.14,0,0,0,2.89,5.78c2.88,3.49,6.44,6.26,8.28,9.92a9.55,9.55,0,0,1,.9,2.82,24.17,24.17,0,0,1,.19,2.76c0,1.77,0,3.41,0,4.91a33,33,0,0,0,.6,7A18.08,18.08,0,0,0,288.1,227Z" style="fill:#455a64"></path><path d="M276.68,153.57a14.59,14.59,0,0,1,8.19-5.67,9.14,9.14,0,0,1,9.15,3c2.05,2.7,1.79,7.06-.93,9.09a2.94,2.94,0,0,1,3.85,1.74,3.56,3.56,0,0,1-1.7,4.06,4.53,4.53,0,0,1-4.54-.24,3,3,0,0,1-.85,4,3.64,3.64,0,0,1-4.19-.14,4.61,4.61,0,0,1-1.7-4" style="fill:#263238"></path><path d="M295,154.17a14.64,14.64,0,0,0-3.12-1.28,12.92,12.92,0,0,0-7.92.8,24.21,24.21,0,0,0-6.69,4.6c-1.54,1.43-2.44,2.38-2.5,2.32a3,3,0,0,1,.55-.74c.38-.45.95-1.09,1.7-1.84a22,22,0,0,1,6.74-4.82,12.52,12.52,0,0,1,8.22-.67,8.09,8.09,0,0,1,2.3,1C294.77,153.91,295,154.14,295,154.17Z" style="fill:#455a64"></path><path d="M289.48,169.75s-.46.43-1.41.44a3.16,3.16,0,0,1-1.59-.42,3.08,3.08,0,0,1-1.33-1.54,3.26,3.26,0,0,1,0-2.36l.22.31a10,10,0,0,1-2.67-.19,10,10,0,0,1,2.67-.28h.32l-.1.32a3,3,0,0,0,.09,2,2.89,2.89,0,0,0,2.45,1.79A12.85,12.85,0,0,0,289.48,169.75Z" style="fill:#455a64"></path><path d="M293.19,160.08a18.74,18.74,0,0,1-2.64.11c-1.63,0-3.88.13-6.34.39s-4.69.63-6.29.94a16.47,16.47,0,0,1-2.61.44,11.49,11.49,0,0,1,2.53-.8,46.34,46.34,0,0,1,6.31-1.1,47.06,47.06,0,0,1,6.4-.24A10.77,10.77,0,0,1,293.19,160.08Z" style="fill:#455a64"></path></g><g id="freepik--Plants--inject-100"><path d="M96.05,449.53a3.33,3.33,0,0,1,.19-.44l.59-1.27a31.27,31.27,0,0,0,1.74-5.06c1.15-4.49,1.56-11.37-.15-19.53A104.13,104.13,0,0,0,94.8,410.1c-1.54-4.66-3.32-9.6-4.77-14.94A57.78,57.78,0,0,1,87.67,378c.22-6.08,2-12.14,4-18.18s4-12,4.63-17.91A27.31,27.31,0,0,0,93,325.36c-2.62-4.83-5.92-8.95-8.38-13.23a46,46,0,0,1-5-12.71,47.32,47.32,0,0,1-.32-19.7,36.24,36.24,0,0,1,2.06-7,2.17,2.17,0,0,1-.13.46l-.41,1.34a52.11,52.11,0,0,0-1.28,5.21A47.94,47.94,0,0,0,80,299.32a46,46,0,0,0,5.06,12.55c2.46,4.22,5.76,8.33,8.44,13.21A27.9,27.9,0,0,1,96.91,342c-.62,6-2.67,12-4.64,18s-3.76,12-4,18a57.28,57.28,0,0,0,2.3,17c1.43,5.31,3.19,10.26,4.7,14.93a103.43,103.43,0,0,1,3.57,13.2c1.66,8.23,1.18,15.17,0,19.69a29.16,29.16,0,0,1-1.87,5.05l-.65,1.24A2.19,2.19,0,0,1,96.05,449.53Z" style="fill:#263238"></path><path d="M88,316.35s-5-16,4-25.39a.55.55,0,0,1,1,.28C93.39,293.88,94,301.94,88,316.35Z" style="fill:#FF725E"></path><path d="M91,296.3a15.3,15.3,0,0,1-.34,2.95c-.33,2-.72,4.42-1.14,7.06s-.8,5-1.13,7.07a15.14,15.14,0,0,1-.53,2.92,12.69,12.69,0,0,1,.09-3c.17-1.83.49-4.34,1-7.11s.93-5.25,1.32-7A12.6,12.6,0,0,1,91,296.3Z" style="fill:#263238"></path><path d="M93.87,354.11s3.06-16.49,15.38-20.58a.56.56,0,0,1,.72.69C109.15,336.78,105.92,344.18,93.87,354.11Z" style="fill:#FF725E"></path><path d="M105.9,337.79a15.74,15.74,0,0,1-1.68,2.46L99.9,346l-4.29,5.72A17.47,17.47,0,0,1,93.78,354a12,12,0,0,1,1.47-2.59c1-1.54,2.46-3.62,4.15-5.85s3.28-4.2,4.47-5.6A13.35,13.35,0,0,1,105.9,337.79Z" style="fill:#263238"></path><path d="M90.54,395.49s-1.86-16.67,8.74-24.16a.56.56,0,0,1,.88.45C100.13,374.47,99.18,382.49,90.54,395.49Z" style="fill:#FF725E"></path><path d="M97.31,376.38a15.2,15.2,0,0,1-.9,2.84c-.71,1.93-1.54,4.2-2.47,6.71s-1.74,4.78-2.44,6.72a16.89,16.89,0,0,1-1.08,2.77,12.58,12.58,0,0,1,.65-2.91c.52-1.76,1.31-4.17,2.29-6.8s1.91-5,2.64-6.66A13.76,13.76,0,0,1,97.31,376.38Z" style="fill:#263238"></path><path d="M99.82,437.11s-1.26-16.73,9.6-23.83a.56.56,0,0,1,.87.48C110.16,416.45,108.93,424.43,99.82,437.11Z" style="fill:#FF725E"></path><path d="M107.27,418.26a14.23,14.23,0,0,1-1,2.8l-2.7,6.62c-1,2.48-1.92,4.72-2.69,6.63A14.82,14.82,0,0,1,99.7,437a13.16,13.16,0,0,1,.76-2.88c.58-1.74,1.46-4.12,2.53-6.71s2.09-4.9,2.88-6.56A12.64,12.64,0,0,1,107.27,418.26Z" style="fill:#263238"></path><path d="M80.79,302.28s-14.87-7.76-15.16-20.74a.55.55,0,0,1,.86-.48C68.71,282.58,74.83,287.85,80.79,302.28Z" style="fill:#FF725E"></path><path d="M68.72,286a15.94,15.94,0,0,1,1.85,2.33l4.19,5.8L79,299.9a16.31,16.31,0,0,1,1.69,2.44,12.71,12.71,0,0,1-2-2.17c-1.18-1.41-2.73-3.41-4.37-5.69s-3.06-4.37-4-5.91A12.5,12.5,0,0,1,68.72,286Z" style="fill:#263238"></path><path d="M96.76,336.67s-15.32-6.85-16.4-19.79a.56.56,0,0,1,.84-.53C83.5,317.74,89.93,322.62,96.76,336.67Z" style="fill:#FF725E"></path><path d="M83.72,321.14a15.31,15.31,0,0,1,2,2.21c1.3,1.6,2.84,3.47,4.53,5.53l4.55,5.52a15.41,15.41,0,0,1,1.84,2.33,12.2,12.2,0,0,1-2.17-2c-1.26-1.33-2.93-3.24-4.7-5.41s-3.32-4.17-4.4-5.65A12.52,12.52,0,0,1,83.72,321.14Z" style="fill:#263238"></path><path d="M88,375S77.43,362,82.36,349.94a.56.56,0,0,1,1-.09C84.76,352.13,88.26,359.41,88,375Z" style="fill:#FF725E"></path><path d="M83.41,355.26a15.62,15.62,0,0,1,.76,2.88c.44,2,1,4.37,1.52,7s1.1,5,1.54,7a17,17,0,0,1,.58,2.91,12.06,12.06,0,0,1-1-2.8c-.51-1.76-1.13-4.22-1.72-7s-1-5.23-1.34-7A13.07,13.07,0,0,1,83.41,355.26Z" style="fill:#263238"></path><path d="M98.36,420.16s-15.2-7.11-16.06-20.06a.56.56,0,0,1,.85-.52C85.42,401,91.77,406,98.36,420.16Z" style="fill:#FF725E"></path><path d="M85.58,404.42a14.44,14.44,0,0,1,2,2.24L92,412.27l4.46,5.59a16.92,16.92,0,0,1,1.8,2.36,12.11,12.11,0,0,1-2.14-2.07c-1.24-1.36-2.88-3.29-4.61-5.49s-3.25-4.23-4.31-5.73A13.46,13.46,0,0,1,85.58,404.42Z" style="fill:#263238"></path><path d="M128.63,354.2s0,.13,0,.37,0,.65,0,1.07c0,1-.1,2.37-.18,4.07-.19,3.58-.46,8.56-.79,14.53h0v0c-1.08,6.07-4.17,12.8-8.32,19.33-3,4.82-6.24,9.19-9,13.26A94.28,94.28,0,0,0,103.58,418a47.65,47.65,0,0,0-3.16,8.17c-.26,1-.46,1.79-.58,2.32a4,4,0,0,1-.22.81,4,4,0,0,1,.1-.83c.07-.55.24-1.34.47-2.36a43.75,43.75,0,0,1,3-8.31,88.61,88.61,0,0,1,6.66-11.27c2.74-4.1,5.91-8.48,8.94-13.27,4.14-6.5,7.21-13.13,8.34-19.1v0c.42-5.95.77-10.94,1-14.51.14-1.69.25-3.05.33-4.06,0-.42.08-.77.11-1.06A1.93,1.93,0,0,1,128.63,354.2Z" style="fill:#263238"></path><path d="M119.58,392.36s6.44-15.5-1.66-25.65a.56.56,0,0,0-1,.19C116.23,369.49,114.91,377.46,119.58,392.36Z" style="fill:#FF725E"></path><path d="M118.41,372.12a13.26,13.26,0,0,1,.51,2.93c.23,1.82.48,4.34.68,7.13s.3,5.33.3,7.16a13,13,0,0,1-.18,3,16,16,0,0,1-.27-3c-.13-2.06-.29-4.47-.47-7.14s-.36-5.08-.5-7.13A14.78,14.78,0,0,1,118.41,372.12Z" style="fill:#263238"></path><g style="opacity:0.30000000000000004"><path d="M119.58,392.36s6.44-15.5-1.66-25.65a.56.56,0,0,0-1,.19C116.23,369.49,114.91,377.46,119.58,392.36Z"></path></g><path d="M99.65,429.69s5.16-16-3.74-25.42a.55.55,0,0,0-1,.26C94.46,407.17,93.78,415.22,99.65,429.69Z" style="fill:#FF725E"></path><path d="M96.84,409.61a13.51,13.51,0,0,1,.74,2.88c.38,1.8.84,4.29,1.26,7.05s.73,5.29.88,7.12a12.8,12.8,0,0,1,.06,3,15.69,15.69,0,0,1-.5-2.93c-.31-2-.66-4.43-1.06-7.07s-.76-5-1.07-7.07A14.53,14.53,0,0,1,96.84,409.61Z" style="fill:#263238"></path><g style="opacity:0.30000000000000004"><path d="M99.65,429.69s5.16-16-3.74-25.42a.55.55,0,0,0-1,.26C94.46,407.17,93.78,415.22,99.65,429.69Z"></path></g><path d="M127.78,373.42s13.74-9.62,12.36-22.53a.56.56,0,0,0-.93-.36C137.22,352.33,131.83,358.34,127.78,373.42Z" style="fill:#FF725E"></path><g style="opacity:0.30000000000000004"><path d="M127.78,373.42s13.74-9.62,12.36-22.53a.56.56,0,0,0-.93-.36C137.22,352.33,131.83,358.34,127.78,373.42Z"></path></g><path d="M137.65,355.71a13.43,13.43,0,0,1-1.14,2.75c-.79,1.66-1.92,3.92-3.25,6.39s-2.61,4.65-3.6,6.2a11.94,11.94,0,0,1-1.75,2.41,16.9,16.9,0,0,1,1.37-2.64c1-1.8,2.14-3.93,3.42-6.27s2.43-4.48,3.41-6.29A14.64,14.64,0,0,1,137.65,355.71Z" style="fill:#263238"></path><path d="M105.19,413.86s16.58-2.58,21-14.78a.55.55,0,0,0-.67-.73C123,399.08,115.47,402.11,105.19,413.86Z" style="fill:#FF725E"></path><g style="opacity:0.30000000000000004"><path d="M105.19,413.86s16.58-2.58,21-14.78a.55.55,0,0,0-.67-.73C123,399.08,115.47,402.11,105.19,413.86Z"></path></g><path d="M121.85,402.31a13.42,13.42,0,0,1-2.23,2c-1.44,1.15-3.46,2.68-5.74,4.31s-4.39,3-6,4a12.29,12.29,0,0,1-2.63,1.4,17,17,0,0,1,2.39-1.77l5.84-4.13,5.83-4.14A14.88,14.88,0,0,1,121.85,402.31Z" style="fill:#263238"></path><polygon points="85.58 444.37 90.33 475.55 109.32 475.52 115.72 444.37 85.58 444.37" style="fill:#455a64"></polygon><path d="M112.93,456.4s-.05.05-.16.11a4.24,4.24,0,0,1-.5.29,6.91,6.91,0,0,1-2.12.63,7.85,7.85,0,0,1-3.49-.32,7.31,7.31,0,0,1-3.75-2.73,5.21,5.21,0,0,1-.88-2.61,2.85,2.85,0,0,1,1.28-2.68,3.09,3.09,0,0,1,3.19.26,4.66,4.66,0,0,1,1.81,2.87,13,13,0,0,1-.53,7.12,8,8,0,0,1-2.2,3.14,6.19,6.19,0,0,1-3.65,1.53,6.69,6.69,0,0,1-3.8-1.11,11.42,11.42,0,0,1-2.84-2.56,6.29,6.29,0,0,1-1.44-3.43,4,4,0,0,1,1.35-3.3,3.11,3.11,0,0,1,3.37-.21,3.61,3.61,0,0,1,1.94,2.55,4.88,4.88,0,0,1-2.4,4.93,6.72,6.72,0,0,1-4.59.67,10.75,10.75,0,0,1-3.26-1.28A19,19,0,0,1,88.43,459a4.19,4.19,0,0,1-.59-.5,4.26,4.26,0,0,1,.65.41,20.88,20.88,0,0,0,1.87,1.15,10.75,10.75,0,0,0,3.21,1.17,6.48,6.48,0,0,0,4.35-.69,4.5,4.5,0,0,0,2.16-4.54,3.15,3.15,0,0,0-1.72-2.22,2.61,2.61,0,0,0-2.86.18,3.5,3.5,0,0,0-1.15,2.9A5.75,5.75,0,0,0,95.69,460a10.73,10.73,0,0,0,2.71,2.44,6.23,6.23,0,0,0,3.5,1,5.64,5.64,0,0,0,3.34-1.4,7.45,7.45,0,0,0,2.07-2.94,10.93,10.93,0,0,0,.74-3.44,11.46,11.46,0,0,0-.2-3.38,4.22,4.22,0,0,0-1.61-2.6,2.65,2.65,0,0,0-2.71-.27,2.44,2.44,0,0,0-1.1,2.29,5,5,0,0,0,.78,2.43,7.15,7.15,0,0,0,3.54,2.65,7.78,7.78,0,0,0,3.38.4A8.69,8.69,0,0,0,112.93,456.4Z" style="fill:#263238"></path><path d="M407.21,448.24c-1.3,1.86-3.83,1.25-5,.11a9.35,9.35,0,0,1-2.12-4.35c-1-3.58-2.07-7.34-1.31-11a6,6,0,0,1,1.41-3,3.17,3.17,0,0,1,3-1,4.69,4.69,0,0,1,2.64,2.77A26.26,26.26,0,0,1,408.44,443a9,9,0,0,1-1.23,5.2" style="fill:#FF725E"></path><g style="opacity:0.2"><path d="M407.21,448.24c-1.3,1.86-3.83,1.25-5,.11a9.35,9.35,0,0,1-2.12-4.35c-1-3.58-2.07-7.34-1.31-11a6,6,0,0,1,1.41-3,3.17,3.17,0,0,1,3-1,4.69,4.69,0,0,1,2.64,2.77A26.26,26.26,0,0,1,408.44,443a9,9,0,0,1-1.23,5.2"></path></g><path d="M402.33,457.66a11.17,11.17,0,0,0-7-.85,5.71,5.71,0,0,0-3.46,1.54,2.49,2.49,0,0,0,0,3.45,3.3,3.3,0,0,0,2.18.55c1.85,0,3.91-.34,5.38.77.85.63,1.41,1.69,2.42,2a2.38,2.38,0,0,0,2.62-1.17,4,4,0,0,0,.29-3A4.55,4.55,0,0,0,402.33,457.66Z" style="fill:#FF725E"></path><path d="M410.78,450.91a6.78,6.78,0,0,1-1-6.23,12,12,0,0,1,3.69-5.34,20,20,0,0,1,6.6-3.9,7,7,0,0,1,3-.5,3.09,3.09,0,0,1,2.49,1.51c.69,1.32,0,2.93-.69,4.24a49.74,49.74,0,0,1-4.34,6.6,11.75,11.75,0,0,1-4.77,4.09c-2,.75-4,.66-5.08-.71" style="fill:#FF725E"></path><path d="M407.3,476.28a3.3,3.3,0,0,1-.12-.84c-.06-.62-.13-1.39-.22-2.31a34,34,0,0,0-.52-3.38,26.45,26.45,0,0,0-1.23-4,14.71,14.71,0,0,0-2-3.61,7.59,7.59,0,0,0-2.58-2.14,7.15,7.15,0,0,0-2.17-.68,4.16,4.16,0,0,1-.84-.12,4.11,4.11,0,0,1,.86,0,6.27,6.27,0,0,1,2.26.59,7.58,7.58,0,0,1,2.72,2.16,14.23,14.23,0,0,1,2.11,3.68,23.72,23.72,0,0,1,1.22,4.06,26.47,26.47,0,0,1,.45,3.42c.07,1,.1,1.77.12,2.32A4.31,4.31,0,0,1,407.3,476.28Z" style="fill:#263238"></path><path d="M407.14,474.51a1.73,1.73,0,0,1,0-.39V473c0-1,0-2.38-.05-4.12-.09-3.48-.39-8.28-1-13.55s-1.36-10-2.06-13.43c-.17-.85-.34-1.62-.49-2.29s-.28-1.26-.41-1.73-.19-.8-.26-1.09a2.73,2.73,0,0,1-.07-.38s.06.12.14.36.19.64.33,1.08.29,1,.46,1.71.36,1.44.54,2.29a125.5,125.5,0,0,1,2.16,13.44c.58,5.29.84,10.1.87,13.58,0,1.75,0,3.16-.06,4.13,0,.45-.06.83-.07,1.12A1.69,1.69,0,0,1,407.14,474.51Z" style="fill:#263238"></path><path d="M407.12,465.23a7,7,0,0,1,0-1.17c.05-.76.15-1.84.36-3.18a44,44,0,0,1,1-4.62,41.12,41.12,0,0,1,1.94-5.47,29.07,29.07,0,0,1,5.67-8.83,14.56,14.56,0,0,1,1.34-1.24c.2-.18.38-.35.57-.49l.52-.35a8.09,8.09,0,0,1,1-.64,37.08,37.08,0,0,0-3.23,2.89,30.5,30.5,0,0,0-5.53,8.8,44.3,44.3,0,0,0-1.95,5.42c-.5,1.7-.84,3.26-1.09,4.58s-.39,2.39-.47,3.14A9,9,0,0,1,407.12,465.23Z" style="fill:#263238"></path></g></svg>